<svg xmlns="http://www.w3.org/2000/svg" height="74.667" width="174.667"><g fill="#fff"><path d="M113.283 36.596c0-1.508-1.279-2.463-2.878-2.463-1.574 0-2.924.894-2.924 2.21 0 1.152.646 1.947 3.617 3.093 1.28-.73 2.185-1.646 2.185-2.84M35.198 23.2h6.004l-2.987-7.141-3.017 7.141M130.359 42.205v-6.44l-4.695 6.44h4.695M109.883 40.527c-1.558.773-2.492 1.864-2.492 3.224 0 1.777 1.392 2.944 3.129 2.944 1.713 0 3.128-1.104 3.128-2.736 0-1.402-1.117-2.326-3.765-3.432M153.452 14.815c-.497 0-.843 0-1.32.052v8.456c.633.08 1.032.052 1.639.052 2.937 0 4.869-1.132 4.869-4.307 0-2.461-1.112-4.253-5.188-4.253"/><path d="M167.35 30.802c-4.627.212-5.189-.753-7.6-3.049-.935-.888-2.511-2.66-4.527-3.816-.627.027-1.047.05-1.742.05-.581 0-.925-.023-1.349-.052v4.38c0 1.59.633 1.985 2.117 1.985h.607v.502h-7.484V30.3h.45c1.56 0 2.118-.425 2.118-2.197V17.06c0-1.643-.453-2.117-1.988-2.117h-.58v-.503c.635 0 2.25-.107 3.333-.157a50.566 50.566 0 013.334-.081c4.893 0 7.088 2.008 7.088 4.71 0 1.981-1.35 3.648-3.52 4.283.978.769 1.77 1.317 3.014 2.558l2.09 2c1.562 1.563 2.606 2.415 4.64 2.547zm-20.573 0h-13.009V30.3c2.104-.05 2.252-.341 2.252-1.945l.008-11.475c0-1.605-.145-1.895-2.25-1.945v-.5l12.51.005.21 3.268h-.483c-.339-2.17-1.006-2.322-1.938-2.322h-5.874v6.407h4.601c.945 0 1.393-.121 1.527-1.648h.5v4.412h-.5c-.21-1.866-.712-1.752-1.79-1.752h-4.338v5.604c0 1.21.554 1.446 1.53 1.446h3.94c1.814 0 2.404-.388 3.04-2.604h.479zm-14.12-12.807h-2.998v10.78c0 1.162.39 1.574 1.702 1.574h.495v.454h-6.268v-.454h.492c1.312 0 1.703-.412 1.703-1.574v-10.78h-2.995c-.861 0-1.247.236-1.572 2.145h-.388l.31-2.967h11.169l.32 2.966h-.388c-.323-1.899-.722-2.144-1.583-2.144zm.892 25.257h-1.717v3.758h-1.473v-3.758h-5.774v-.484l6.631-9.033h.616v8.47h1.717zm-9.398 2.47l-.175 1.288h-.005v.004l-.003-.004h-8.26v-.593c.536-.524 6.61-5.113 6.61-8.841 0-1.56-1.186-2.788-2.746-2.788-1.474 0-2.787 1.121-3.263 2.805h-.33c.246-2.368 1.95-3.989 4.197-3.989 2.18 0 3.779 1.58 3.779 3.679 0 3.162-4.006 6.149-6.61 8.438h4.938c1.037-.021 1.403-.354 1.688-1.617h.393l-.216 1.617zm-13.654 1.5c-2.469 0-4.433-1.527-4.433-3.43 0-1.467 1.141-2.659 3.36-3.476-2.15-.88-3.177-1.901-3.177-3.323 0-1.84 1.898-3.389 4.182-3.389 2.285 0 4.112 1.337 4.112 3.012 0 1.337-1.002 2.364-3.013 3.098 2.399.98 3.47 2.049 3.47 3.658 0 2.175-1.967 3.85-4.5 3.85zm-5.174-.212H99.53v-.502c1.973 0 2.067-.339 2.067-1.365h.004v-9.735c-.705.584-1.931 1.359-2.749 1.717l-.174-.294c1.273-.815 3.1-2.386 3.625-3.096h.768V44.86c.026 1.343.281 1.601 2.25 1.648zM85.029 22.805v5.547h.004c0 1.604.148 1.893 2.25 1.945v.5h-6.506v-.5c1.972 0 2.066-.34 2.066-1.368h.002V16.307l-.005-.002c0-1.026-.093-1.366-2.065-1.366v-.502h6.508v.502c-2.104.05-2.252.34-2.252 1.945l-.006-.001-.005 4.91h9.661l.005-5.136c-.017-1.402-.251-1.67-2.249-1.717v-.5h6.508v.5c-1.972 0-2.068.34-2.068 1.367h-.006v12.622l.01.003c0 1.025.094 1.368 2.068 1.368v.498h-6.508V30.3c1.986-.05 2.228-.312 2.249-1.69v-5.805zm-5.821 6.802c-1.568.748-2.83 1.617-5.935 1.617-5.341 0-8.53-3.526-8.53-8.392 0-5.104 3.293-8.788 8.793-8.788 2.76 0 4.79.928 6.017 1.453l.204 3.258h-.502c-.865-2.448-2.694-4.05-5.563-4.05-4.394 0-6.583 3.397-6.583 7.819 0 4.76 2.875 7.976 6.875 7.976 1.197 0 4.193-.797 5.984-3.981h.497zM64.585 14.94c-1.975 0-2.07.341-2.07 1.367v14.678h-.683L49.604 16.73v11.286c0 1.894.09 2.288 2.33 2.288v.499H41.226v-.5h.358c1.5 0 2.052-.158 2.052-.895 0-.42-.185-.815-.29-1.078l-1.723-4.117h-6.853l-1.462 3.459c-.182.5-.526 1.29-.526 1.658 0 .711.684.974 2.13.974h.095v.499H24.853v-.5c1.235 0 2.447-.34 2.34-1.737l-.761-11.784h-.053l-6.002 14.02h-.604l-6.18-14.02h-.054l-.71 11.839c-.078 1.341.92 1.63 2.106 1.683v.499H9.46v-.5c1.924 0 2.159-.422 2.292-2.816l.7-11.18c0-1.026-.312-1.366-2.285-1.366v-.5h4.609l5.812 13.285 5.783-13.286 4.436-.002v.502c-1.974 0-2.286.34-2.286 1.366l.804 11.575c.115 1.767.356 2.375 1.039 2.375.544 0 .727-.357 1.738-2.557l5.65-13.258h1.867l6.122 14.204c.383.83.708 1.607 1.412 1.607.883 0 1.266-.712 1.266-1.712V15.597c-.604-.422-1.094-.63-2.014-.657v-.5h3.935l10.992 12.917V16.888c0-1.607-.148-1.896-2.25-1.948v-.5h5.503zM99.337 30.3c2.108-.05 2.254-.341 2.254-1.945l.01-11.475c0-1.605-.149-1.895-2.253-1.945v-.5l12.513.005.206 3.268h-.482c-.338-2.17-1.005-2.322-1.934-2.322h-5.878v6.407h4.602c.948 0 1.396-.121 1.525-1.648h.5v4.412h-.5c-.21-1.866-.71-1.752-1.792-1.752h-4.335v5.604c0 1.21.558 1.446 1.529 1.446h3.942c1.81 0 2.407-.388 3.039-2.604h.48l-.412 3.55H99.337zm14.17-10.027c0-1.808 1.756-3.38 4.174-3.38 1.538 0 3.284.542 4.1.914l.312 2.332h-.38c-.664-1.568-2.182-2.61-3.818-2.61-1.564 0-2.656.736-2.656 1.955 0 3.093 7.568 3.808 7.568 7.816 0 2.135-2.019 3.924-4.792 3.924-1.312 0-2.982-.39-4.208-.732l-.482-3.241h.416c.506 2.145 2.206 3.273 4.06 3.273 1.59 0 3.27-.738 3.27-2.456 0-3.135-7.564-3.984-7.564-7.795zM.077 55.107h173.784V1.14H.077zM4.015 62.147v8.824H2.917v-8.824H0v-.923h6.945v.923h-2.93M12.865 70.97v-4.65c0-1.125-.302-1.776-1.341-1.776-1.285 0-2.196 1.27-2.196 2.975v3.452H8.245V60.429h1.083v3.508c0 .478-.028 1.07-.114 1.43l.027.014c.42-1.053 1.315-1.732 2.556-1.732 1.647 0 2.152 1.04 2.152 2.31v5.012h-1.084M18.7 64.486c-1.01 0-1.732.737-1.907 1.863h3.64c.028-1.112-.636-1.863-1.733-1.863zm2.83 2.673h-4.794c-.072 2.15.78 3.045 2.383 3.045.75 0 1.545-.187 2.078-.461l.101.924c-.663.274-1.471.433-2.367.433-2.166 0-3.32-1.17-3.32-3.683 0-2.15 1.154-3.753 3.146-3.753 1.979 0 2.802 1.37 2.802 2.96 0 .13 0 .317-.028.535M29.747 71.1c-3.019 0-3.596-1.69-3.596-3.364v-6.512h1.112v6.41c0 1.4.462 2.557 2.57 2.557 1.79 0 2.671-.75 2.671-2.831v-6.136h1.082v6.05c0 2.498-1.313 3.826-3.84 3.826M40.33 70.97v-4.65c0-1.125-.302-1.776-1.342-1.776-1.285 0-2.195 1.27-2.195 2.975v3.452H35.71v-7.178h1.07c0 .462-.044 1.156-.116 1.588l.03.015c.403-1.039 1.312-1.747 2.568-1.747 1.647 0 2.153 1.04 2.153 2.31v5.012H40.33M43.464 63.793h1.083v7.176h-1.083zm.55-1.3a.733.733 0 01-.753-.736c0-.404.332-.736.753-.736.403 0 .75.332.75.736a.742.742 0 01-.75.736M49.557 70.97h-1.126l-2.715-7.177h1.228l1.675 4.679c.144.447.274.852.405 1.27h.013c.116-.389.246-.823.391-1.211l1.717-4.738h1.186l-2.774 7.178M55.693 64.486c-1.012 0-1.733.737-1.907 1.863h3.64c.029-1.112-.636-1.863-1.733-1.863zm2.83 2.673h-4.795c-.072 2.15.78 3.045 2.384 3.045.75 0 1.544-.187 2.079-.461l.101.924c-.664.274-1.473.433-2.37.433-2.165 0-3.32-1.17-3.32-3.683 0-2.15 1.155-3.753 3.149-3.753 1.977 0 2.801 1.37 2.801 2.96 0 .13 0 .317-.03.535M63.707 64.732c-1.59-.26-2.34.953-2.34 3.364v2.875h-1.083v-7.178h1.07c0 .478-.06 1.184-.16 1.805l.014.014c.29-1.053 1.04-2.121 2.543-1.948l-.044 1.068M66.19 71.1a8.1 8.1 0 01-1.517-.144l.03-.997a6.1 6.1 0 001.602.232c1.04 0 1.762-.463 1.762-1.214 0-1.732-3.494-.649-3.494-3.205 0-1.199.982-2.108 2.802-2.108.446 0 .952.072 1.4.159l-.028.938a4.802 4.802 0 00-1.488-.245c-1.055 0-1.574.433-1.574 1.14 0 1.718 3.508.737 3.508 3.177 0 1.271-1.126 2.267-3.002 2.267M70.855 63.793h1.082v7.176h-1.082zm.548-1.3a.733.733 0 01-.75-.736c0-.404.33-.736.75-.736.404 0 .75.332.75.736a.742.742 0 01-.75.736M76.414 71.085c-1.445 0-1.863-.634-1.863-2.123v-4.317h-1.56v-.852h1.56V61.41l1.082-.302v2.685h2.108v.852h-2.108v3.87c0 1.285.231 1.618 1.084 1.618.36 0 .736-.043 1.024-.13v.938c-.374.087-.88.144-1.327.144M81.67 71.721c-.838 2.21-1.474 2.946-3.047 2.946-.26 0-.62-.03-.91-.072l.115-.997c.29.1.579.145.896.145.866 0 1.3-.405 1.862-1.92l.333-.852-2.744-7.178h1.242l1.502 4.116c.23.65.389 1.17.55 1.703h.012c.13-.461.434-1.357.723-2.18l1.286-3.639h1.183l-3.004 7.928M91.315 64.559c-1.125 0-2.195.851-2.195 2.773 0 1.833.795 2.844 2.195 2.844 1.126 0 2.152-.867 2.152-2.844 0-1.734-.722-2.773-2.152-2.773zm-.159 6.541c-1.92 0-3.161-1.17-3.161-3.683 0-2.05 1.269-3.753 3.421-3.753 1.748 0 3.177.967 3.177 3.595 0 2.137-1.314 3.841-3.437 3.841M100.412 61.396a3.726 3.726 0 00-1.127-.159c-1.097 0-1.59.636-1.59 2.022v.534h2.125v.852h-2.124v6.326h-1.082v-6.326h-1.56v-.852h1.56v-.505c0-2.008.995-2.93 2.714-2.93.405 0 .795.042 1.184.128l-.1.91M113.465 70.97l-.867-6.008c-.173-1.183-.245-1.905-.303-2.44h-.028c-.102.405-.246.969-.477 1.633l-2.282 6.816h-1.256l-2.167-6.383c-.245-.708-.504-1.473-.62-2.065h-.014c-.043.78-.146 1.56-.26 2.556l-.708 5.892h-1.14l1.385-9.747h1.401l2.224 6.584c.245.707.449 1.357.549 1.89h.029c.144-.663.289-1.095.534-1.789l2.282-6.685h1.444l1.444 9.747h-1.17M120.223 67.605c-2.7 0-3.278.852-3.278 1.546 0 .649.462 1.069 1.17 1.069 1.27 0 2.108-1.258 2.108-2.499zm.057 3.366c0-.55 0-1.1.073-1.518h-.029c-.347.911-1.27 1.647-2.499 1.647-1.14 0-1.964-.607-1.964-1.747 0-1.502 1.56-2.543 4.362-2.543v-.59c0-1.084-.391-1.69-1.632-1.69-.694 0-1.56.217-2.195.62l-.101-.953a6.074 6.074 0 012.484-.533c1.978 0 2.54.981 2.54 2.339v2.816c0 .708 0 1.516.03 2.152h-1.069M128.005 70.97v-4.65c0-1.125-.302-1.776-1.342-1.776-1.286 0-2.195 1.27-2.195 2.975v3.452h-1.083v-7.178h1.068c0 .462-.043 1.156-.116 1.588l.03.015c.405-1.039 1.314-1.747 2.57-1.747 1.647 0 2.151 1.04 2.151 2.31v5.012h-1.083M133.855 71.056c-1.603 0-3.106-.707-3.106-3.421 0-2.355 1.184-3.943 3.524-3.943.591 0 1.184.087 1.69.245l-.116.954a4.51 4.51 0 00-1.647-.318c-1.544 0-2.31 1.142-2.31 2.874 0 1.472.462 2.686 2.195 2.686.635 0 1.328-.16 1.804-.405l.102.939a6.057 6.057 0 01-2.136.39M142.113 70.97v-4.65c0-1.125-.304-1.776-1.342-1.776-1.286 0-2.195 1.27-2.195 2.975v3.452h-1.083V60.429h1.083v3.508c0 .478-.03 1.07-.116 1.43l.03.014c.418-1.053 1.313-1.732 2.555-1.732 1.646 0 2.151 1.04 2.151 2.31v5.012h-1.083M147.947 64.486c-1.011 0-1.732.737-1.906 1.863h3.639c.03-1.112-.636-1.863-1.733-1.863zm2.83 2.673h-4.794c-.072 2.15.78 3.045 2.382 3.045.751 0 1.546-.187 2.08-.461l.102.924c-.664.274-1.474.433-2.368.433-2.167 0-3.322-1.17-3.322-3.683 0-2.15 1.155-3.753 3.148-3.753 1.978 0 2.8 1.37 2.8 2.96 0 .13 0 .317-.028.535M153.621 71.1a8.095 8.095 0 01-1.516-.144l.03-.997c.461.13 1.04.232 1.602.232 1.04 0 1.763-.463 1.763-1.214 0-1.732-3.496-.649-3.496-3.205 0-1.199.983-2.108 2.801-2.108.448 0 .954.072 1.402.159l-.03.938a4.786 4.786 0 00-1.486-.245c-1.055 0-1.575.433-1.575 1.14 0 1.718 3.51.737 3.51 3.177 0 1.271-1.126 2.267-3.005 2.267M160.568 71.085c-1.444 0-1.864-.634-1.864-2.123v-4.317h-1.559v-.852h1.559V61.41l1.084-.302v2.685h2.108v.852h-2.108v3.87c0 1.285.23 1.618 1.083 1.618.361 0 .737-.043 1.025-.13v.938a6.331 6.331 0 01-1.328.144M165.896 64.486c-1.01 0-1.733.737-1.907 1.863h3.639c.03-1.112-.635-1.863-1.732-1.863zm2.83 2.673h-4.794c-.072 2.15.78 3.045 2.383 3.045.75 0 1.545-.187 2.078-.461l.102.924c-.664.274-1.472.433-2.368.433-2.166 0-3.322-1.17-3.322-3.683 0-2.15 1.156-3.753 3.148-3.753 1.979 0 2.802 1.37 2.802 2.96 0 .13 0 .317-.03.535M173.837 64.732c-1.588-.26-2.338.953-2.338 3.364v2.875h-1.083v-7.178h1.068c0 .478-.057 1.184-.159 1.805l.014.014c.289-1.053 1.04-2.121 2.542-1.948l-.044 1.068"/></g></svg>